<?xml version="1.0" encoding="UTF-8"?><svg id="Layer_2" xmlns="http://www.w3.org/2000/svg" viewBox="0 0 496.063 78.772"><defs><style>.cls-1{fill:#fff;}</style></defs><g id="Layer_1-2"><path class="cls-1" d="M116.843,49.972c-2.748,0-5.291-.265-7.63-.795-2.339-.53-4.375-1.29-6.111-2.278-1.735-.988-3.085-2.217-4.049-3.688-.965-1.47-1.447-3.169-1.447-5.098v-.579c0-.192.024-.362.073-.507h10.486v.651c.047,1.157.481,2.097,1.302,2.82.819.723,1.904,1.242,3.254,1.555,1.349.314,2.772.47,4.267.47,1.397,0,2.759-.096,4.086-.289,1.325-.192,2.434-.579,3.327-1.157.891-.579,1.338-1.349,1.338-2.314,0-1.204-.531-2.097-1.591-2.676-1.061-.579-2.52-1.036-4.375-1.374-1.856-.337-3.941-.723-6.255-1.157-1.929-.337-3.773-.77-5.532-1.302-1.761-.53-3.339-1.217-4.737-2.061-1.399-.843-2.507-1.928-3.327-3.254-.82-1.325-1.229-2.976-1.229-4.954,0-2.072.457-3.857,1.374-5.352.915-1.494,2.217-2.723,3.905-3.688,1.687-.963,3.676-1.675,5.966-2.133,2.289-.458,4.761-.687,7.412-.687,2.459,0,4.773.229,6.942.687,2.17.458,4.05,1.133,5.641,2.025,1.591.893,2.857,2.014,3.797,3.363.94,1.35,1.41,2.869,1.41,4.556v.795c0,.242-.025.434-.073.579h-10.486v-.506c0-.915-.325-1.663-.976-2.242-.651-.579-1.543-1.024-2.676-1.338-1.133-.313-2.422-.47-3.869-.47-.723,0-1.543.049-2.459.145-.916.097-1.797.266-2.64.507-.844.242-1.519.579-2.025,1.012-.507.434-.759.989-.759,1.664,0,.868.457,1.555,1.374,2.061.915.506,2.133.904,3.652,1.193,1.519.289,3.17.603,4.954.94,2.025.434,4.05.88,6.075,1.338,2.025.459,3.881,1.073,5.569,1.844,1.687.772,3.012,1.88,3.977,3.327.964,1.446,1.447,3.375,1.447,5.785,0,2.314-.47,4.279-1.41,5.894-.94,1.616-2.278,2.918-4.014,3.905-1.736.989-3.785,1.699-6.147,2.133-2.363.434-4.967.651-7.811.651Z"/><path class="cls-1" d="M156.212,49.972c-4.532,0-8.039-1.157-10.522-3.471-2.484-2.314-3.725-5.954-3.725-10.92V11.065h10.559v22.78c0,1.399.168,2.567.506,3.508.337.94.843,1.699,1.519,2.278.675.579,1.482,1.001,2.423,1.265.94.266,2.012.398,3.218.398,1.736,0,3.314-.385,4.737-1.157,1.421-.771,2.567-1.844,3.435-3.218.868-1.374,1.302-2.929,1.302-4.665V11.065h10.631v38.039h-8.678l-.796-5.786h-.506c-1.157,1.495-2.459,2.737-3.905,3.725-1.446.989-3.05,1.724-4.809,2.205-1.761.482-3.556.723-5.388.723Z"/><path class="cls-1" d="M188.083,62.338V11.065h8.606l.94,5.496h.506c1.494-2.314,3.387-3.953,5.677-4.917,2.289-.964,4.784-1.446,7.485-1.446,3.519,0,6.569.699,9.148,2.097,2.579,1.399,4.567,3.568,5.966,6.509,1.398,2.941,2.097,6.702,2.097,11.282,0,4.483-.712,8.197-2.133,11.137-1.422,2.941-3.387,5.135-5.894,6.581-2.507,1.446-5.448,2.169-8.823,2.169-1.688,0-3.315-.193-4.881-.579-1.567-.385-3.001-.976-4.303-1.771-1.302-.796-2.412-1.772-3.327-2.929h-.434v17.646h-10.631ZM208.26,41.366c2.17,0,3.953-.398,5.352-1.193,1.398-.796,2.434-2,3.11-3.616.674-1.615,1.013-3.531,1.013-5.749v-1.447c0-2.314-.338-4.266-1.013-5.858-.676-1.591-1.712-2.784-3.11-3.58-1.399-.796-3.207-1.193-5.424-1.193-2.074,0-3.821.434-5.243,1.302-1.422.868-2.507,2.11-3.254,3.725-.748,1.616-1.121,3.532-1.121,5.749v1.012c0,1.64.217,3.146.651,4.52.434,1.374,1.048,2.531,1.844,3.471.796.94,1.783,1.652,2.965,2.133,1.181.483,2.591.724,4.231.724Z"/><path class="cls-1" d="M254.97,49.972c-4.581,0-8.474-.712-11.679-2.133-3.207-1.422-5.653-3.603-7.34-6.545-1.688-2.94-2.531-6.677-2.531-11.209s.843-8.268,2.531-11.21c1.687-2.94,4.109-5.122,7.268-6.544,3.157-1.422,6.978-2.133,11.462-2.133,4.387,0,8.111.699,11.173,2.097,3.061,1.399,5.375,3.532,6.943,6.4,1.566,2.869,2.35,6.472,2.35,10.812v2.965h-30.807c.096,2.218.554,4.062,1.374,5.532.819,1.471,2.012,2.544,3.58,3.218,1.566.676,3.508,1.013,5.821,1.013,1.157,0,2.266-.132,3.327-.398,1.06-.264,2.025-.674,2.893-1.229.868-.554,1.591-1.241,2.169-2.061.579-.819.892-1.759.941-2.82h10.631c0,2.218-.495,4.219-1.482,6.003-.989,1.784-2.35,3.279-4.086,4.483-1.736,1.206-3.833,2.133-6.292,2.785-2.459.651-5.207.976-8.244.976ZM244.484,25.89h19.526c0-1.349-.229-2.531-.687-3.544-.458-1.013-1.097-1.855-1.916-2.531-.82-.674-1.784-1.168-2.892-1.482-1.11-.313-2.339-.47-3.688-.47-2.073,0-3.845.301-5.315.904-1.471.603-2.616,1.507-3.435,2.712-.82,1.206-1.35,2.676-1.591,4.411Z"/><path class="cls-1" d="M281.663,49.104V11.065h8.678l.868,6.22h.506c.482-1.302,1.181-2.506,2.097-3.616.915-1.108,2.036-1.977,3.363-2.604,1.325-.626,2.832-.94,4.52-.94.868,0,1.663.073,2.387.217.723.145,1.349.314,1.88.506v9.257h-4.194c-1.64,0-3.05.253-4.231.759-1.182.506-2.17,1.23-2.965,2.17-.795.94-1.374,2.037-1.736,3.29-.362,1.254-.542,2.676-.542,4.267v18.513h-10.631Z"/><path class="cls-1" d="M326.362,49.972c-2.652,0-4.822-.41-6.509-1.229-1.688-.819-2.929-2.036-3.724-3.652-.796-1.614-1.193-3.627-1.193-6.038v-20.032h-5.858v-7.955h6.292l2.025-11.065h8.172v11.065h8.534v7.955h-8.534v18.513c0,1.446.301,2.543.904,3.29.602.748,1.747,1.121,3.435,1.121h4.194v6.87c-.627.193-1.399.372-2.314.542-.916.168-1.857.313-2.82.434-.965.12-1.833.181-2.604.181Z"/><path class="cls-1" d="M359.397,49.972c-4.581,0-8.474-.712-11.679-2.133-3.207-1.422-5.653-3.603-7.34-6.545-1.688-2.94-2.531-6.677-2.531-11.209s.843-8.268,2.531-11.21c1.687-2.94,4.109-5.122,7.268-6.544,3.157-1.422,6.978-2.133,11.462-2.133,4.387,0,8.111.699,11.173,2.097,3.061,1.399,5.375,3.532,6.943,6.4,1.566,2.869,2.35,6.472,2.35,10.812v2.965h-30.807c.096,2.218.554,4.062,1.374,5.532.819,1.471,2.012,2.544,3.58,3.218,1.566.676,3.508,1.013,5.821,1.013,1.157,0,2.266-.132,3.327-.398,1.06-.264,2.025-.674,2.893-1.229.868-.554,1.591-1.241,2.169-2.061.579-.819.892-1.759.941-2.82h10.631c0,2.218-.495,4.219-1.482,6.003-.989,1.784-2.35,3.279-4.086,4.483-1.736,1.206-3.833,2.133-6.292,2.785-2.459.651-5.207.976-8.244.976ZM348.911,25.89h19.526c0-1.349-.229-2.531-.687-3.544-.458-1.013-1.097-1.855-1.916-2.531-.82-.674-1.784-1.168-2.892-1.482-1.11-.313-2.339-.47-3.688-.47-2.073,0-3.845.301-5.315.904-1.471.603-2.616,1.507-3.435,2.712-.82,1.206-1.35,2.676-1.591,4.411Z"/><path class="cls-1" d="M398.311,49.972c-1.688,0-3.375-.169-5.062-.506-1.688-.338-3.195-.891-4.52-1.663-1.326-.771-2.399-1.868-3.218-3.291-.82-1.421-1.229-3.242-1.229-5.46,0-2.844.674-5.146,2.025-6.906,1.349-1.76,3.302-3.085,5.858-3.977,2.555-.892,5.58-1.483,9.076-1.772,3.495-.29,7.34-.434,11.534-.434v-2.242c0-1.302-.278-2.374-.831-3.218-.555-.843-1.423-1.506-2.604-1.989-1.182-.481-2.76-.723-4.737-.723-1.736,0-3.218.181-4.448.542-1.229.362-2.169.832-2.82,1.41-.651.579-.976,1.254-.976,2.025v.868h-10.414c-.049-.29-.085-.53-.109-.724-.025-.192-.036-.434-.036-.723,0-2.217.747-4.158,2.242-5.821,1.494-1.664,3.676-2.94,6.545-3.833,2.867-.891,6.303-1.338,10.305-1.338s7.364.434,10.088,1.302c2.723.868,4.809,2.218,6.255,4.05,1.446,1.833,2.17,4.171,2.17,7.015v16.706c0,.868.228,1.531.687,1.988.458.459,1.024.687,1.699.687h3.037v6.798c-.531.242-1.374.494-2.531.759-1.157.264-2.507.398-4.049.398-1.784,0-3.254-.229-4.411-.687-1.157-.457-2.061-1.085-2.712-1.88s-1.121-1.723-1.41-2.784h-.579c-1.012,1.061-2.254,2.014-3.724,2.857-1.471.844-3.135,1.482-4.99,1.916-1.856.434-3.894.651-6.111.651ZM401.493,42.161c1.398,0,2.76-.181,4.086-.542,1.325-.362,2.519-.868,3.58-1.519,1.06-.651,1.928-1.47,2.604-2.459.674-.988,1.012-2.061,1.012-3.218v-2.097c-3.76,0-6.967.181-9.618.542-2.652.362-4.69.965-6.111,1.808-1.423.844-2.133,2.013-2.133,3.507,0,.965.289,1.736.868,2.314.579.579,1.374,1.001,2.387,1.265,1.013.266,2.121.398,3.326.398Z"/><path class="cls-1" d="M432.857,49.104V11.065h8.678l.868,5.713h.506c1.013-1.494,2.23-2.735,3.652-3.724,1.422-.988,2.953-1.711,4.592-2.17,1.638-.457,3.327-.687,5.063-.687,2.94,0,5.424.518,7.449,1.555,2.025,1.037,3.567,2.712,4.628,5.026h.507c1.06-1.494,2.302-2.735,3.724-3.724,1.422-.988,2.989-1.711,4.701-2.17,1.71-.457,3.458-.687,5.243-.687,2.844,0,5.267.482,7.268,1.446,2,.965,3.555,2.507,4.665,4.628,1.108,2.122,1.663,4.822,1.663,8.1v24.732h-10.703v-22.925c0-1.349-.157-2.506-.47-3.471-.314-.964-.759-1.736-1.338-2.314s-1.314-.987-2.205-1.229c-.893-.241-1.844-.362-2.857-.362-1.591,0-3.05.374-4.375,1.121-1.326.748-2.387,1.808-3.182,3.182-.796,1.374-1.193,2.929-1.193,4.665v21.334h-10.559v-22.925c0-1.349-.169-2.506-.506-3.471-.338-.964-.808-1.736-1.41-2.314-.603-.579-1.326-.987-2.17-1.229-.844-.241-1.82-.362-2.929-.362-1.591,0-3.05.374-4.375,1.121-1.326.748-2.375,1.808-3.146,3.182-.772,1.374-1.157,2.929-1.157,4.665v21.334h-10.631Z"/><path class="cls-1" d="M281.663,78.413v-20.586h16.906c1.117,0,2.124.214,3.022.643.897.429,1.611,1.022,2.139,1.78.529.758.793,1.646.793,2.663,0,.898-.16,1.666-.478,2.304-.319.638-.753,1.157-1.301,1.556-.549.399-1.152.699-1.811.897v.12c.778.16,1.477.444,2.095.853.618.409,1.107.963,1.466,1.66.359.699.539,1.546.539,2.544,0,1.177-.284,2.179-.853,3.007-.569.828-1.332,1.462-2.289,1.9s-2.035.658-3.231.658h-16.995ZM287.737,65.966h8.378c.459,0,.848-.085,1.167-.255.319-.169.569-.404.748-.703.18-.3.269-.659.269-1.078,0-.578-.199-1.042-.598-1.391-.399-.349-.897-.523-1.496-.523h-8.468v3.95ZM287.737,74.074h8.887c.638,0,1.156-.174,1.556-.523.398-.349.598-.883.598-1.601,0-.379-.085-.718-.255-1.018-.17-.299-.424-.533-.762-.703-.34-.169-.748-.254-1.227-.254h-8.797v4.099Z"/><path class="cls-1" d="M323.972,78.413v-20.586h17.115c1.496,0,2.732.31,3.71.927.978.619,1.716,1.432,2.214,2.439.498,1.007.748,2.109.748,3.306,0,1.297-.31,2.479-.928,3.546-.618,1.068-1.546,1.91-2.782,2.529l4.189,7.839h-6.882l-3.411-6.852h-7.9v6.852h-6.074ZM330.046,67.073h9.037c.738,0,1.326-.219,1.765-.658.439-.439.659-1.027.659-1.765,0-.478-.1-.892-.3-1.242s-.478-.613-.838-.793-.788-.27-1.286-.27h-9.037v4.728Z"/><path class="cls-1" d="M364.725,78.413l10.114-20.586h6.792l10.114,20.586h-6.613l-1.556-3.292h-11.011l-1.556,3.292h-6.284ZM374.599,70.663h6.942l-1.856-4.189c-.08-.18-.19-.444-.329-.793-.14-.349-.29-.718-.449-1.107s-.299-.748-.419-1.078c-.119-.329-.219-.573-.299-.733h-.209c-.14.359-.31.778-.509,1.257-.199.478-.384.938-.554,1.376-.17.439-.324.798-.464,1.077l-1.855,4.189Z"/><path class="cls-1" d="M420.679,78.772c-1.676,0-3.242-.1-4.698-.3-1.456-.199-2.733-.548-3.83-1.047-1.097-.498-1.955-1.197-2.573-2.094-.618-.898-.927-2.035-.927-3.412v-.149c0-.06.009-.12.03-.18h5.984c-.021.08-.035.16-.045.239-.01.08-.015.17-.015.269,0,.619.234,1.102.704,1.452.469.349,1.122.593,1.96.733.838.14,1.825.209,2.962.209.459,0,.932-.015,1.421-.045.488-.03.962-.08,1.421-.15.459-.07.872-.174,1.242-.314.369-.139.658-.314.867-.524.21-.209.314-.473.314-.793,0-.419-.224-.752-.673-1.002-.449-.249-1.068-.449-1.856-.598-.788-.15-1.665-.284-2.633-.404-.968-.119-1.97-.264-3.007-.434-1.037-.169-2.045-.399-3.022-.689-.978-.289-1.855-.673-2.633-1.151-.778-.479-1.397-1.097-1.856-1.856-.459-.757-.688-1.675-.688-2.752,0-1.097.274-2.04.823-2.828.549-.787,1.321-1.44,2.319-1.959.997-.519,2.174-.903,3.53-1.152,1.357-.249,2.832-.374,4.429-.374,1.635,0,3.116.13,4.443.389,1.326.259,2.463.643,3.411,1.152.947.508,1.675,1.147,2.184,1.915.509.768.763,1.671.763,2.708v.419h-5.895v-.239c0-.419-.18-.793-.538-1.122-.359-.329-.883-.588-1.571-.778-.689-.19-1.521-.284-2.499-.284-1.177,0-2.145.075-2.902.224-.759.15-1.317.349-1.676.598-.359.25-.539.534-.539.853,0,.4.229.713.689.943.459.229,1.077.414,1.855.554.778.14,1.65.269,2.618.389.968.119,1.975.259,3.022.419,1.048.16,2.054.379,3.023.658.967.28,1.84.654,2.618,1.122.778.469,1.396,1.067,1.855,1.795.459.728.689,1.621.689,2.678,0,1.656-.479,2.992-1.437,4.009-.957,1.017-2.269,1.756-3.934,2.214-1.666.459-3.576.689-5.73.689Z"/><path class="cls-1" d="M450.601,78.413v-20.586h6.074v20.586h-6.074Z"/><path class="cls-1" d="M476.723,78.413v-20.586h6.074v15.679h13.226v4.907h-19.3Z"/><path class="cls-1" d="M34.445.174v31.847h-13.5l4.284,1.774c13.593,6.295,12.999,28.689-4.457,28.689H.175v-31.847h14.884c-.197,0-3.333-.783-4.073-1.11-1.133-.502-2.662-1.108-3.781-1.938C-4.582,19.42-1.747.174,14.541.174h19.904Z"/><path class="cls-1" d="M81.179,9.869v7.784c0,6.989-7.07,13.645-13.71,14.677-1.23.193-2.465.223-3.599.223v7.271c-3.508.081-6.968,1.005-10.041,2.675-1.22.666-2.38,1.445-3.449,2.332-.505.408-.994.849-1.456,1.305-.258.252-.51.516-.757.779-.081.086-.156.167-.226.252h-.005c-.403.457-.795.929-1.166,1.413-.059.081-.118.161-.177.242-.967,1.316-1.789,2.74-2.444,4.233v.005c-.193.446-.376.903-.537,1.359-.655-1.005-1.23-2.122-1.719-3.368-3.32-8.488-2.063-30.149-2.267-40.308-.075-3.519.081-7.054.011-10.573h24.234v9.703l.521-.006h16.788Z"/><path class="cls-1" d="M80.968,59.738l-1.111-.711c-.003-.017-.006-.032-.008-.049l-15.458-9.871-.013.008-15.436,9.862c-.007.007-.008.017-.008.026l-1.111.71c.036-.281.081-.558.132-.834.017-.113.038-.225.06-.338.156-.758.365-1.499.618-2.214v-.006c.134-.376.28-.746.436-1.112h.004c.5-1.138,1.117-2.213,1.848-3.206.043-.06.092-.118.135-.178.28-.37.575-.731.881-1.074h.006c.053-.064.113-.129.167-.188.188-.205.381-.404.575-.591.353-.349.72-.676,1.106-.994.806-.667,1.681-1.257,2.611-1.762,2.229-1.215,4.77-1.94,7.467-2.021.177-.004.349-.01.526-.01,2.896,0,5.619.735,7.995,2.03,1.606.875,3.056,2.009,4.286,3.347.06.058.118.124.173.188h.006c.306.344.601.704.881,1.074.043.06.086.118.134.178.726.994,1.348,2.068,1.848,3.206.161.366.306.736.441,1.112v.006c.252.715.456,1.456.612,2.214.079.394.146.792.198,1.195Z"/><path class="cls-1" d="M72.73,61.899c0,.28-.014.562-.042.841-1.774-1.41-3.743-2.52-5.863-3.308-2.389-.888-4.904-1.337-7.476-1.337-.815,0-1.634.046-2.441.139,1.396-2.846,4.303-4.669,7.487-4.669,4.595,0,8.334,3.738,8.334,8.334Z"/><path class="cls-1" d="M72.397,64.237c-.014.049-.029.099-.045.147l-.013.04c-1.104,3.473-4.297,5.809-7.945,5.809-4.595,0-8.334-3.739-8.334-8.334,0-.696.086-1.387.256-2.057l.01-.039c.013-.049.026-.099.04-.148.982-.146,1.983-.22,2.982-.22,4.795,0,9.41,1.701,13.048,4.801Z"/><path class="cls-1" d="M80.972,64.032c-.053.413-.12.821-.202,1.225-.156.758-.36,1.499-.612,2.214-.135.376-.28.746-.441,1.112-.5,1.144-1.122,2.218-1.848,3.208-.047.064-.09.122-.134.182-.28.37-.575.725-.881,1.069-.006,0-.006.006-.006.006-.054.058-.113.124-.173.188-1.23,1.332-2.68,2.466-4.286,3.347-2.375,1.294-5.099,2.03-7.995,2.03s-5.619-.736-7.993-2.03c-.93-.511-1.805-1.101-2.611-1.767-.387-.312-.753-.644-1.106-.988-.193-.193-.387-.392-.575-.591-.054-.064-.114-.129-.167-.188-.006,0-.006-.006-.006-.006-.306-.344-.601-.699-.881-1.069-.043-.06-.092-.118-.135-.182-.731-.989-1.353-2.064-1.852-3.208-.156-.366-.302-.736-.436-1.112-.253-.715-.462-1.456-.618-2.214-.081-.397-.146-.797-.198-1.202l1.105.707c.003.017.007.033.01.05l15.432,9.853.026.017,15.458-9.869c.004-.022.008-.046.013-.068l1.111-.711Z"/><polygon class="cls-1" points="64.365 74.664 64.379 74.656 64.391 74.664 64.365 74.664"/><polygon class="cls-1" points="64.391 49.107 64.379 49.115 64.365 49.107 64.391 49.107"/></g></svg>